<?xml version="1.0" encoding="utf-8"?>
<!-- Generator: Adobe Illustrator 27.2.0, SVG Export Plug-In . SVG Version: 6.00 Build 0)  -->
<svg version="1.1" id="Layer_1" xmlns="http://www.w3.org/2000/svg" xmlns:xlink="http://www.w3.org/1999/xlink" x="0px" y="0px"
	 viewBox="0 0 48 48" style="enable-background:new 0 0 48 48;" xml:space="preserve">
<style type="text/css">
	.st0{fill-rule:evenodd;clip-rule:evenodd;fill:#FFFF00;}
	.st1{fill-rule:evenodd;clip-rule:evenodd;fill:#A166FF;}
	.st2{fill:#A166FF;}
	.st3{fill:#FFFF00;}
</style>
<path class="st0" d="M22.8,45.7L22.8,45.7c-0.6-0.5-4.6-3.3-9.4-4.2C6.1,40.2,1.8,36.3,1.8,30.9c0-3.2,1.2-5.3,2.3-7.2l0.2-0.3
	C5,22,5.8,20.7,5.8,19c0-2.2-0.9-4.2-2.8-6.2c-0.1-0.1-0.1-0.1-0.2-0.2l-1-0.7l0.7-1c0,0,5-6.1,6.2-7.6l0.8-1.2l1.3,0.9
	c1.7,1.9,4,3.1,6.1,3.1c2.3,0,4.1-1,5.8-3.3l1-1.3l1,1.2c1.8,2.3,3.5,3.3,5.8,3.3c2,0,4.2-1.1,6-3l1-1.1l0.9,1.3
	c1.2,1.5,6,7.5,6.2,7.7l0.8,1l-1,0.8c0,0-3,2.6-3,6.3c0,1.7,0.8,3.1,1.6,4.6l0.3,0.6c1,1.8,2,3.8,2,6.7c0,5.3-4.3,9.3-11.6,10.6
	c-5.1,1-9.5,4.2-9.5,4.3l-0.8,0.6L22.8,45.7z M5.2,11.7c0.9,0.9,3,3.6,3,7.3c0,2.5-1,4.2-2,5.9l-0.1,0.2c-1,1.7-1.9,3.3-1.9,5.8
	c0,6.2,7.8,8,9.4,8.3c4.9,0.8,8.8,3.4,9.9,4.1c3.3-2.2,6.6-3.6,9.9-4.1c1.6-0.3,9.6-2,9.6-8.3c0-2.4-0.9-4.1-1.9-5.8L41,24.9
	c-1-1.7-2-3.5-2-5.9c0-3.2,1.6-5.7,3-7.3c-0.8-0.9-2.1-2.5-3.2-3.9c-0.5-0.7-1.1-1.3-1.5-1.9c-2.1,1.8-4.5,2.8-6.9,2.8
	c-2.6,0-4.8-1-6.8-3.2c-2,2.2-4.1,3.2-6.8,3.2c-2.4,0-4.8-1-6.9-2.8l-1,1.2C7.7,8.7,6.1,10.6,5.2,11.7z"/>
<path id="AWS-Amazon-Route-53-Hosted-zone_Resource-Icon_dark-bg" class="st1" d="M33.4,39.4c-4.6,0.8-8.4,3.2-9.9,4.2
	c-1.4-1-5.3-3.4-9.9-4.2C11.4,39,4,37.1,4,30.9c0-2.6,1-4.3,2-6.1c1-1.7,2-3.4,2-5.8c0-3.6-2-6.2-3.1-7.3c1.1-1.4,3.6-4.4,5-6.1
	c2.1,1.9,4.5,2.9,6.9,2.9c2.6,0,4.8-1,6.8-3.3c2,2.2,4.2,3.3,6.8,3.3c2.4,0,4.8-1,6.9-2.9c1.4,1.7,3.8,4.8,5,6.1
	c-1.1,1.2-3.1,3.8-3.1,7.3c0,2.4,1,4.1,2,5.8c1,1.8,2,3.5,2,6.1C43.2,37.1,35.7,39,33.4,39.4 M42.9,23.8c-0.9-1.6-1.7-3-1.7-4.8
	c0-3.9,3.1-6.5,3.1-6.5l0.8-0.6l-0.6-0.8c-0.1-0.1-5-6.1-6.2-7.7l-0.7-1l-0.8,0.9c-1.9,2-4.1,3.1-6.2,3.1c-2.4,0-4.2-1.1-6-3.4
	l-0.8-1L23,3c-1.8,2.4-3.7,3.4-6,3.4c-2.1,0-4.4-1.1-6.2-3.1L9.7,2.5L9,3.5C7.8,5,2.8,11.1,2.8,11.1l-0.6,0.8L3,12.5
	c0,0.1,3,2.6,3,6.5c0,1.9-0.8,3.2-1.7,4.8c-1.1,1.9-2.3,4-2.3,7.1c0,5.2,4.2,9.1,11.4,10.4c5.2,0.9,9.6,4.2,9.6,4.3l0.6,0.5l0.6-0.5
	c0,0,4.4-3.3,9.6-4.3c7.1-1.3,11.4-5.2,11.4-10.4C45.2,27.8,43.9,25.7,42.9,23.8"/>
<g>
	<path class="st2" d="M30.8,36.8c-0.9,0-1.8-0.1-2.8-0.2s-1.9-0.4-2.7-0.7l-0.7-0.2v-4.5h3.6l0.3,0.8c0.2,0.7,0.6,1.1,0.9,1.4
		c0.3,0.2,0.8,0.4,1.4,0.4c0.9,0,1.5-0.2,1.8-0.5c0.4-0.4,0.6-1.1,0.6-1.9c0-0.9-0.3-1.6-0.8-2c-0.6-0.5-1.5-0.7-2.8-0.7h-2.4v-3.2
		l1.1-0.1c1.1-0.1,2-0.2,2.7-0.5c0.6-0.3,1.1-0.6,1.4-1.1c0.3-0.4,0.4-0.8,0.4-1.4c0-0.6-0.2-1.1-0.5-1.4c-0.3-0.3-0.8-0.5-1.5-0.5
		c-0.6,0-1,0.2-1.3,0.4c-0.4,0.3-0.6,0.8-0.8,1.4l-0.2,0.8h-3.7v-4.1l0.7-0.3c1.1-0.5,2.2-0.8,3.2-1.1s2-0.4,3-0.4
		c1.2,0,2.2,0.2,3.1,0.5c1,0.4,1.8,0.9,2.3,1.7s0.8,1.6,0.8,2.6c0,0.9-0.2,1.7-0.6,2.4c-0.4,0.7-0.9,1.3-1.6,1.7
		c-0.1,0.1-0.2,0.2-0.3,0.2c0.4,0.2,0.8,0.5,1.2,0.8c0.5,0.5,0.9,1,1.2,1.6c0.3,0.6,0.5,1.4,0.5,2.1c0,1.1-0.3,2.2-0.8,3.1
		c-0.6,0.9-1.5,1.7-2.6,2.2C33.7,36.6,32.3,36.8,30.8,36.8z"/>
	<g>
		<path class="st2" d="M15.3,36.8c-1.7,0-3.5-0.3-5.4-1l-0.8-0.2v-4.5h3.7l0.2,0.8c0.2,0.6,0.5,1.1,0.8,1.4c0.3,0.2,0.8,0.4,1.4,0.4
			c0.9,0,1.5-0.2,1.9-0.6c0.4-0.5,0.7-1.2,0.7-2.3c0-0.7-0.1-1.3-0.4-1.7c-0.2-0.4-0.5-0.6-0.8-0.8c-0.4-0.2-0.9-0.3-1.4-0.3
			s-1,0-1.4,0.1c-0.4,0.1-0.8,0.2-1.3,0.3L12,28.4l-2-1.1v-9.9h8.8c0-0.1,0.3-0.8,0.3-0.8h3.1l-0.4,5.1H14v3c0.1,0,0.1,0,0.2,0
			c0.6-0.1,1.3-0.2,1.9-0.2c1.3,0,2.4,0.2,3.4,0.8c1,0.5,1.8,1.2,2.4,2.1s0.8,2,0.8,3.1c0,1.3-0.3,2.4-0.9,3.4
			c-0.6,1-1.5,1.7-2.7,2.3C18.1,36.6,16.8,36.8,15.3,36.8z"/>
		<path class="st3" d="M10.7,34.8v-2.7h1.7c0.3,0.8,0.7,1.5,1.2,1.9c0.6,0.4,1.3,0.6,2.1,0.6c1.2,0,2.1-0.3,2.7-1s0.9-1.7,0.9-3
			c0-0.9-0.2-1.6-0.5-2.2s-0.8-1-1.3-1.3c-0.6-0.2-1.2-0.4-1.9-0.4c-0.6,0-1.2,0-1.6,0.1c-0.4,0.1-0.9,0.2-1.4,0.3l-1.1-0.6v-8.1H19
			c0.3,0,0.5,0,0.7-0.1c0.1-0.1,0.2-0.2,0.3-0.2c0.1-0.1,0.2-0.3,0.3-0.5h1.1l-0.2,2.9h-7.9V26c0.5-0.2,1-0.3,1.5-0.4
			c0.6-0.1,1.1-0.2,1.7-0.2c1.1,0,2,0.2,2.9,0.6s1.5,1,1.9,1.7c0.5,0.8,0.7,1.6,0.7,2.6c0,1.1-0.3,2-0.8,2.9
			c-0.5,0.8-1.2,1.4-2.2,1.8c-1,0.5-2.1,0.6-3.4,0.6C14.1,35.7,12.4,35.4,10.7,34.8z"/>
		<path class="st3" d="M26.3,21.9v-2.4c1.1-0.5,2-0.8,3-1.1c0.9-0.2,1.8-0.3,2.7-0.3c1,0,1.9,0.2,2.7,0.5s1.4,0.7,1.8,1.3
			c0.4,0.6,0.6,1.2,0.6,2c0,0.7-0.2,1.4-0.5,1.9s-0.7,1-1.3,1.4c-0.6,0.4-1.3,0.8-2.2,1.2v0.1c0.6,0.1,1.1,0.2,1.6,0.5
			c0.5,0.2,1,0.5,1.4,0.8c0.4,0.4,0.7,0.8,1,1.3s0.4,1.1,0.4,1.7c0,1-0.2,1.8-0.7,2.6s-1.2,1.4-2.1,1.7c-0.9,0.5-2.1,0.7-3.5,0.7
			c-0.8,0-1.6-0.1-2.5-0.2c-0.9-0.2-1.7-0.4-2.5-0.7v-2.7h1.6c0.3,0.8,0.7,1.5,1.3,1.9c0.6,0.4,1.2,0.6,2.1,0.6
			c1.2,0,2.1-0.3,2.7-0.9c0.6-0.6,0.9-1.4,0.9-2.7c0-1.2-0.4-2.1-1.2-2.8c-0.8-0.6-2-1-3.5-1h-1.2v-1.1c1.2-0.1,2.3-0.3,3.1-0.7
			s1.5-0.8,1.9-1.4c0.4-0.6,0.6-1.2,0.6-2c0-0.9-0.3-1.7-0.8-2.1c-0.5-0.5-1.3-0.8-2.3-0.8c-0.9,0-1.6,0.2-2.1,0.6
			c-0.5,0.5-0.9,1.1-1.2,2L26.3,21.9L26.3,21.9z"/>
	</g>
</g>
<g>
	<path class="st3" d="M14.8,15.4l-0.1-0.1c-0.1-0.2-0.2-0.5-0.4-1.4c-0.2-0.7-0.4-0.8-0.8-0.9h-0.4v2.3h-1.2V9.7l0.2,0
		c0.4-0.1,0.9-0.1,1.4-0.1c0.8,0,1.3,0.2,1.7,0.5c0.3,0.3,0.5,0.7,0.5,1.2c0,0.6-0.3,1.1-0.8,1.4c0.2,0.2,0.4,0.6,0.5,1
		c0.2,0.7,0.3,1.2,0.4,1.4l0.2,0.4H14.8z M13.6,12.1c0.6,0,1-0.3,1-0.8c0-0.2,0-0.7-1-0.8c-0.2,0-0.3,0-0.4,0v1.5H13.6z"/>
	<path class="st2" d="M12.2,9.9c0.4-0.1,0.9-0.1,1.3-0.1c0.7,0,1.2,0.1,1.6,0.4c0.3,0.2,0.4,0.6,0.4,1c0,0.7-0.4,1.2-1,1.4v0
		c0.4,0.1,0.7,0.5,0.8,1.1c0.2,0.8,0.3,1.3,0.4,1.5H15c-0.1-0.2-0.2-0.6-0.4-1.3c-0.2-0.7-0.4-1-1.1-1h-0.7v2.3h-0.7V9.9z
		 M12.9,12.3h0.7c0.7,0,1.2-0.4,1.2-1c0-0.7-0.5-1-1.2-1c-0.3,0-0.6,0-0.7,0.1V12.3z"/>
	<path class="st3" d="M18.6,15.5c-1.6,0-2.7-1.2-2.7-3c0-1.8,1.1-3.1,2.8-3.1c1.6,0,2.7,1.2,2.7,3C21.4,14.6,20,15.5,18.6,15.5z
		 M18.7,10.5c-1,0-1.5,1-1.5,2c0,0.9,0.5,1.9,1.5,1.9c1,0,1.5-1,1.5-2C20.1,11.5,19.7,10.5,18.7,10.5z"/>
	<path class="st2" d="M21.1,12.4c0,1.9-1.1,2.8-2.5,2.8c-1.4,0-2.4-1.1-2.4-2.7c0-1.7,1.1-2.8,2.5-2.8C20.2,9.7,21.1,10.8,21.1,12.4
		z M16.9,12.5c0,1.2,0.6,2.2,1.7,2.2c1.1,0,1.7-1,1.7-2.2c0-1.1-0.6-2.2-1.7-2.2C17.5,10.3,16.9,11.3,16.9,12.5z"/>
	<path class="st3" d="M23.9,15.5c-0.8,0-2.2-0.3-2.2-2.6V9.5H23V13c0,0.7,0.2,1.5,1,1.5c0.7,0,1.1-0.5,1.1-1.5V9.5h1.2v3.4
		C26.2,14.6,25.4,15.5,23.9,15.5z"/>
	<path class="st2" d="M22.7,9.8V13c0,1.2,0.5,1.7,1.3,1.7c0.8,0,1.3-0.5,1.3-1.7V9.8H26v3.1c0,1.7-0.9,2.3-2,2.3
		c-1.1,0-1.9-0.6-1.9-2.3V9.8H22.7z"/>
	<polygon class="st3" points="28,15.4 28,10.6 26.3,10.6 26.3,9.5 30.8,9.5 30.8,10.6 29.2,10.6 29.2,15.4 	"/>
	<path class="st2" d="M28.2,10.4h-1.6V9.8h4v0.6h-1.6v4.8h-0.7V10.4z"/>
	<polygon class="st3" points="30.9,15.4 30.9,9.5 34.3,9.5 34.3,10.6 32.1,10.6 32.1,11.8 34.2,11.8 34.2,12.9 32.1,12.9 32.1,14.4 
		34.4,14.4 34.4,15.4 	"/>
	<path class="st2" d="M34,12.7h-2.1v1.9h2.3v0.6h-3V9.8h2.9v0.6h-2.2v1.7H34V12.7z"/>
</g>
</svg>
